<?xml version="1.0" encoding="UTF-8"?>
<svg version="1.1" xmlns="http://www.w3.org/2000/svg" width="522" height="523">
<path d="M0 0 C2.13161433 -0.00311998 4.26322866 -0.00623996 6.45943737 -0.00945449 C13.67326225 -0.01749512 20.88700442 -0.01108729 28.10083008 -0.00482178 C33.24362233 -0.00752895 38.3864142 -0.01108832 43.52920532 -0.01544189 C57.54942897 -0.02460076 71.56962337 -0.02100728 85.58984756 -0.01468372 C100.22005547 -0.00964175 114.85026076 -0.01431013 129.48046875 -0.01745605 C154.05542453 -0.02110099 178.63036831 -0.01628281 203.20532227 -0.0067749 C231.6708138 0.00411063 260.1362767 0.00058542 288.60176754 -0.01042771 C312.98373378 -0.01948561 337.36569136 -0.02079322 361.74765873 -0.01555037 C376.33530713 -0.01242241 390.92294205 -0.01204387 405.5105896 -0.01862335 C419.22084274 -0.02437448 432.93105873 -0.02044109 446.64130783 -0.00883484 C451.69183668 -0.00617624 456.74236863 -0.00697357 461.79289627 -0.01136017 C468.65054818 -0.01676995 475.50807863 -0.01003733 482.36572266 0 C485.41233517 -0.00669217 485.41233517 -0.00669217 488.52049541 -0.01351953 C502.18286133 0.02566802 502.18286133 0.02566802 502.18286133 2.25396729 C495.5638343 2.45831434 488.98599542 2.52247661 482.36572266 2.50793457 C480.23410832 2.51105455 478.10249399 2.51417453 475.90628529 2.51738906 C468.6924604 2.52542969 461.47871823 2.51902186 454.26489258 2.51275635 C449.12210032 2.51546352 443.97930846 2.51902289 438.83651733 2.52337646 C424.81629368 2.53253533 410.79609929 2.52894185 396.77587509 2.52261829 C382.14566719 2.51757632 367.5154619 2.5222447 352.88525391 2.52539062 C328.31029813 2.52903556 303.73535435 2.52421738 279.16040039 2.51470947 C250.69490885 2.50382394 222.22944596 2.50734915 193.76395512 2.51836228 C169.38198888 2.52742018 145.0000313 2.52872779 120.61806393 2.52348495 C106.03041552 2.52035698 91.44278061 2.51997844 76.85513306 2.52655792 C63.14487992 2.53230905 49.43466393 2.52837566 35.72441483 2.51676941 C30.67388598 2.51411081 25.62335403 2.51490814 20.57282639 2.51929474 C13.71517448 2.52470452 6.85764402 2.5179719 0 2.50793457 C-3.04661252 2.51462674 -3.04661252 2.51462674 -6.15477276 2.5214541 C-30.83199216 2.45067281 -13.02824617 -0.02861774 0 0 Z " fill="#000000" transform="translate(19.817138671875,-0.25396728515625)"/>
<path d="M0 0 C2.70476532 -0.01268417 5.40953064 -0.02536835 8.19625854 -0.03843689 C12.63943039 -0.03403343 12.63943039 -0.03403343 17.17236328 -0.02954102 C20.19272736 -0.03478287 23.21309143 -0.04002472 26.32498169 -0.04542542 C32.74627372 -0.05187231 39.16757752 -0.05047453 45.58886719 -0.04199219 C55.38644779 -0.03353892 65.18343499 -0.06212143 74.98095703 -0.09399414 C81.21142561 -0.09560759 87.44189521 -0.09502588 93.67236328 -0.09204102 C96.59804169 -0.10327499 99.52372009 -0.11450897 102.53805542 -0.12608337 C175.10531972 0.12043081 232.09191691 83.49682598 159.61767578 135.40405273 C157.14267578 136.39405273 157.14267578 136.39405273 154.61767578 137.40405273 C158.29081556 143.33868069 158.29081556 143.33868069 162.61767578 147.40405273 C162.61767578 148.06405273 162.61767578 148.72405273 162.61767578 149.40405273 C163.27767578 149.40405273 163.93767578 149.40405273 164.61767578 149.40405273 C167.64592918 153.0474201 170.64002676 156.71921207 173.61767578 160.40405273 C175.26767578 162.21905273 176.91767578 164.03405273 178.61767578 165.90405273 C183.48764025 171.26101365 188.04123526 176.79630167 192.61767578 182.40405273 C195.60204596 185.75138686 198.60104682 189.08576088 201.61767578 192.40405273 C212.89192456 204.89245138 206.22842716 202.69881508 191.74267578 202.71655273 C188.61025391 202.73331055 185.47783203 202.75006836 182.25048828 202.76733398 C160.48126032 201.85125335 148.90908528 189.66854067 135.61767578 173.40405273 C133.80267578 171.42405273 131.98767578 169.44405273 130.11767578 167.40405273 C125.05968747 161.8862473 120.34853548 156.20102166 115.61767578 150.40405273 C113.96767578 148.58905273 112.31767578 146.77405273 110.61767578 144.90405273 C107.37846689 141.34092296 104.22481543 137.69730835 101.18017578 133.96655273 C97.82808757 129.87976026 94.32467789 125.91590608 90.74267578 122.02905273 C78.53492843 108.63030565 86.62813695 110.71890922 100.05517578 110.77905273 C139.04185828 110.62670149 184.78459992 68.12983443 133.66259766 40.75024414 C124.26881443 37.62180441 115.30932682 37.73499874 105.52392578 37.80249023 C102.49573669 37.7904808 102.49573669 37.7904808 99.40637207 37.77822876 C92.97660085 37.75520804 86.54746373 37.76460702 80.11767578 37.77905273 C73.68800681 37.78290485 67.2586172 37.77942323 60.82897949 37.75845337 C56.83558817 37.74640108 52.8421183 37.74897149 48.84875488 37.76815796 C34.24196815 37.73885527 -5.38232422 30.97069219 -5.38232422 9.40405273 C-6.04232422 9.40405273 -6.70232422 9.40405273 -7.38232422 9.40405273 C-16.33234315 -1.33596999 -10.80137796 0.02434429 0 0 Z " fill="#000000" transform="translate(178.38232421875,172.595947265625)"/>
<path d="M0 0 C11.14482565 -0.09901835 22.28909703 -0.14400354 33.43432617 -0.16381836 C38.0131332 -0.17551622 42.59192484 -0.19623527 47.1706543 -0.2253418 C53.91480413 -0.26789839 60.65856495 -0.2841473 67.40283203 -0.29443359 C69.43410751 -0.31194168 71.465383 -0.32944977 73.55821228 -0.3474884 C100.04125805 -0.30697771 115.45487493 7.54530257 131.78173828 28.13134766 C133.76173828 30.44134766 135.74173828 32.75134766 137.78173828 35.13134766 C137.78173828 39.50635381 124.90391557 37.28152303 122.25830078 37.26416016 C119.07302734 37.26673828 115.88775391 37.26931641 112.60595703 37.27197266 C107.48230638 37.26999537 102.35979008 37.25593089 97.23632812 37.21044922 C92.32713614 37.17190151 87.41761825 37.18572728 82.50830078 37.20166016 C78.06224365 37.18256592 78.06224365 37.18256592 73.52636719 37.16308594 C60.86832476 39.29660894 81.75320252 54.7268466 86.78173828 60.13134766 C89.79484546 63.78725104 92.7958993 67.45314021 95.78173828 71.13134766 C97.43173828 72.94634766 99.08173828 74.76134766 100.78173828 76.63134766 C104.02094717 80.19447744 107.17459864 83.83809204 110.21923828 87.56884766 C113.45947738 91.51927615 116.8292526 95.36499964 120.28173828 99.13134766 C125.33987028 104.64930984 130.04350267 110.3401708 134.78173828 116.13134766 C136.59673828 118.11134766 138.41173828 120.09134766 140.28173828 122.13134766 C145.33749729 127.64672112 150.05750813 133.33342883 154.78173828 139.13134766 C156.43173828 140.78134766 158.08173828 142.43134766 159.78173828 144.13134766 C159.78173828 150.39710918 147.98508216 147.56696384 143.53173828 147.56884766 C140.51533203 147.58818359 137.49892578 147.60751953 134.39111328 147.62744141 C106.81428952 146.03839575 91.99799091 124.43434497 75.40673828 104.75634766 C72.04276339 100.79433279 68.63887131 96.8649275 65.15673828 93.00634766 C62.13668466 89.64114505 59.20312984 86.19699646 56.34423828 82.69384766 C53.0853589 78.72069334 49.69335248 74.85524179 46.21923828 71.06884766 C41.78173828 66.13134766 41.78173828 66.13134766 41.78173828 64.13134766 C41.12173828 64.13134766 40.46173828 64.13134766 39.78173828 64.13134766 C37.09170516 60.81684256 34.4304213 57.47898869 31.78173828 54.13134766 C28.46023108 50.45396469 25.12820012 46.78603625 21.78173828 43.13134766 C20.46173828 41.48134766 19.14173828 39.83134766 17.78173828 38.13134766 C10.47080712 34.47588207 -2.78736075 36.73380215 -10.85107422 36.60791016 C-31.74699174 35.41775986 -49.98693102 19.59400905 -59.21826172 1.13134766 C-52.65521244 0.63973573 -46.25683702 0.44307358 -39.68310547 0.40087891 C-37.61528305 0.37298782 -35.54746063 0.34509674 -33.41697693 0.31636047 C-22.2783556 0.17820473 -11.13894214 0.11140491 0 0 Z " fill="#000000" transform="translate(153.21826171875,227.86865234375)"/>
</svg>
